# Blender v3.1.2 OBJ File: ''
# www.blender.org
o Cube_Cube.001
v -100.000000 -100.000000 0.490000
v -100.000000 100.000000 0.490000
v -100.000000 -100.000000 -0.490000
v -100.000000 100.000000 -0.490000
v 100.000000 -100.000000 0.490000
v 100.000000 100.000000 0.490000
v 100.000000 -100.000000 -0.490000
v 100.000000 100.000000 -0.490000
vt 0.625000 0.000000
vt 0.375000 0.250000
vt 0.375000 0.000000
vt 0.994279 -0.005919
vt 0.005721 1.001393
vt 0.005721 -0.005919
vt 0.625000 0.500000
vt 0.375000 0.750000
vt 0.375000 0.500000
vt 0.995525 -0.001875
vt -0.003441 1.003564
vt -0.003441 -0.001875
vt 0.125000 0.750000
vt 0.125000 0.500000
vt 0.875000 0.500000
vt 0.625000 0.750000
vt 0.625000 0.250000
vt 0.994279 1.001393
vt 0.995525 1.003564
vt 0.875000 0.750000
vn -1.0000 0.0000 0.0000
vn 0.0000 0.0000 -1.0000
vn 1.0000 0.0000 0.0000
vn 0.0000 0.0000 1.0000
vn 0.0000 -1.0000 0.0000
vn 0.0000 1.0000 0.0000
s off
f 2/1/1 3/2/1 1/3/1
f 4/4/2 7/5/2 3/6/2
f 8/7/3 5/8/3 7/9/3
f 6/10/4 1/11/4 5/12/4
f 7/9/5 1/13/5 3/14/5
f 4/15/6 6/16/6 8/7/6
f 2/1/1 4/17/1 3/2/1
f 4/4/2 8/18/2 7/5/2
f 8/7/3 6/16/3 5/8/3
f 6/10/4 2/19/4 1/11/4
f 7/9/5 5/8/5 1/13/5
f 4/15/6 2/20/6 6/16/6
