# Blender v3.1.2 OBJ File: ''
# www.blender.org
o Cube_Cube.001
v -0.974560 -0.003214 -1.524667
v -0.974560 -0.003221 1.524667
v -0.974560 0.003221 -1.524667
v -0.974560 0.003214 1.524667
v 0.974560 -0.003214 -1.524667
v 0.974560 -0.003221 1.524667
v 0.974560 0.003221 -1.524667
v 0.974560 0.003214 1.524667
vt 0.573006 0.046481
vt 0.637477 0.264295
vt 0.572616 0.264830
vt 0.637868 0.045945
vt 0.012929 0.511811
vt 0.077693 0.718911
vt 0.013199 0.718885
vt 0.077422 0.511837
vt 0.625000 0.000000
vt 0.375000 0.250000
vt 0.375000 0.000000
vt 0.625000 0.500000
vt 0.375000 0.750000
vt 0.375000 0.500000
vt 0.125000 0.750000
vt 0.125000 0.500000
vt 0.875000 0.500000
vt 0.625000 0.750000
vt 0.625000 0.250000
vt 0.875000 0.750000
vn 0.0000 1.0000 0.0000
vn 0.0000 -1.0000 -0.0000
vn -1.0000 0.0000 0.0000
vn 1.0000 0.0000 0.0000
vn 0.0000 0.0000 -1.0000
vn 0.0000 0.0000 1.0000
s off
f 4/1/1 7/2/1 3/3/1
f 4/1/1 8/4/1 7/2/1
f 6/5/2 1/6/2 5/7/2
f 6/5/2 2/8/2 1/6/2
f 2/9/3 3/10/3 1/11/3
f 8/12/4 5/13/4 7/14/4
f 7/14/5 1/15/5 3/16/5
f 4/17/6 6/18/6 8/12/6
f 2/9/3 4/19/3 3/10/3
f 8/12/4 6/18/4 5/13/4
f 7/14/5 5/13/5 1/15/5
f 4/17/6 2/20/6 6/18/6
